<svg width="500" height="900" viewBox="0 0 500 900" fill="none" xmlns="http://www.w3.org/2000/svg">
<path d="M113.757 14.0627H139.347C153.49 14.0627 164.938 24.2857 164.938 36.9146C164.938 49.5427 153.49 59.7658 139.347 59.7658C125.205 59.7658 113.757 49.5427 113.757 36.9146V14.0627Z" fill="black"/>
<path d="M385.41 14.0627H359.82C345.677 14.0627 334.229 24.2857 334.229 36.9146C334.229 49.5427 345.677 59.7658 359.82 59.7658C373.961 59.7658 385.41 49.5427 385.41 36.9146V14.0627Z" fill="black"/>
<path d="M137.378 14.0627H357.851V59.7658H137.378V14.0627Z" fill="black"/>
<path d="M427.007 883.651V900H72.9927V883.651H427.007ZM481.752 834.605V65.3951C481.752 38.3076 457.242 16.3488 427.007 16.3488H72.9927C42.7581 16.3488 18.2482 38.3076 18.2482 65.3951V834.605C18.2482 861.692 42.7581 883.651 72.9927 883.651V900C32.995 900 0.511452 871.177 0.00623717 835.45L0 834.605V65.3951C2.12909e-06 29.5606 32.1712 0.458212 72.0491 0.00558796L72.9927 0H427.007L427.951 0.00558796C467.829 0.45822 500 29.5606 500 65.3951V834.605L499.994 835.45C499.489 871.177 467.005 900 427.007 900V883.651C457.242 883.651 481.752 861.692 481.752 834.605Z" fill="black"/>
</svg>
